SplineFontDB: 3.0
FontName: Sofia_Numbers
FullName: Sofia Numbers Light
FamilyName: Sofia Numbers
Weight: Light
Version: 1.0
ItalicAngle: 0
UnderlinePosition: -588
UnderlineWidth: 70
Ascent: 1638
Descent: 410
InvalidEm: 0
sfntRevision: 0x00010000
woffMajor: 1
woffMinor: 0
LayerCount: 2
Layer: 0 1 "Back" 1
Layer: 1 1 "Fore" 0
XUID: [1021 164 1713365385 11475924]
StyleMap: 0x0040
FSType: 4
OS2Version: 2
OS2_WeightWidthSlopeOnly: 0
OS2_UseTypoMetrics: 0
CreationTime: 1561030152
ModificationTime: 1561034122
PfmFamily: 81
TTFWeight: 300
TTFWidth: 5
LineGap: 0
VLineGap: 0
Panose: 0 0 0 0 0 0 0 0 0 0
OS2TypoAscent: 1638
OS2TypoAOffset: 0
OS2TypoDescent: -410
OS2TypoDOffset: 0
OS2TypoLinegap: 0
OS2WinAscent: 1566
OS2WinAOffset: 0
OS2WinDescent: 250
OS2WinDOffset: 0
HheadAscent: 1566
HheadAOffset: 0
HheadDescent: -250
HheadDOffset: 0
OS2SubXSize: 1300
OS2SubYSize: 1400
OS2SubXOff: 94
OS2SubYOff: 280
OS2SupXSize: 1300
OS2SupYSize: 1400
OS2SupXOff: -328
OS2SupYOff: 960
OS2StrikeYSize: 98
OS2StrikeYPos: 516
OS2CapHeight: 799
OS2XHeight: 573
OS2Vendor: 'Bird'
OS2CodePages: 203900ff.c9fd0000
OS2UnicodeRanges: 00000001.00000000.00000000.00000000
DEI: 91125
TtTable: prep
PUSHW_1
 511
SCANCTRL
PUSHB_1
 1
SCANTYPE
SVTCA[y-axis]
MPPEM
PUSHB_1
 8
LT
IF
PUSHB_2
 1
 1
INSTCTRL
EIF
PUSHB_2
 70
 6
CALL
IF
POP
PUSHB_1
 16
EIF
MPPEM
PUSHB_1
 20
GT
IF
POP
PUSHB_1
 128
EIF
SCVTCI
PUSHB_1
 6
CALL
NOT
IF
SVTCA[y-axis]
PUSHB_1
 2
DUP
RCVT
PUSHB_1
 3
CALL
WCVTP
PUSHB_1
 4
DUP
RCVT
PUSHW_3
 2
 535
 2
CALL
PUSHB_1
 3
CALL
WCVTP
PUSHB_1
 3
DUP
RCVT
PUSHB_3
 4
 113
 2
CALL
PUSHB_1
 3
CALL
WCVTP
PUSHB_1
 5
DUP
RCVT
PUSHB_3
 2
 34
 2
CALL
PUSHB_1
 3
CALL
WCVTP
SVTCA[x-axis]
PUSHB_1
 6
DUP
RCVT
PUSHB_1
 3
CALL
WCVTP
PUSHB_1
 7
DUP
RCVT
PUSHW_3
 6
 535
 2
CALL
PUSHB_2
 3
 70
SROUND
CALL
WCVTP
PUSHB_1
 8
DUP
RCVT
PUSHB_3
 6
 35
 2
CALL
PUSHB_2
 3
 70
SROUND
CALL
WCVTP
PUSHB_1
 9
DUP
RCVT
PUSHW_3
 8
 311
 2
CALL
PUSHB_2
 3
 70
SROUND
CALL
WCVTP
PUSHB_1
 10
DUP
RCVT
PUSHB_3
 9
 148
 2
CALL
PUSHB_2
 3
 70

StartChar: .notdef
Encoding: 65536 -1 0
Width: 748
Flags: W
LayerCount: 2
Fore
SplineSet
68 0 m 1,0,-1
 68 1365 l 1,1,-1
 612 1365 l 1,2,-1
 612 0 l 1,3,-1
 68 0 l 1,0,-1
136 68 m 1,4,-1
 544 68 l 1,5,-1
 544 1297 l 1,6,-1
 136 1297 l 1,7,-1
 136 68 l 1,4,-1
EndSplineSet
Validated: 1
EndChar

StartChar: dollar
Encoding: 36 36 4
Width: 1148
GlyphClass: 2
Flags: W
LayerCount: 2
Fore
SplineSet
118 567 m 5,0,1
 162 567 162 567 252 567 c 5,2,3
 252 511 252 511 274 461 c 260,4,5
 296 411 296 411 340 369 c 4,6,7
 384 325 384 325 440 303 c 4,8,9
 498 281 498 281 568 281 c 4,10,11
 712 281 712 281 802 349 c 4,12,13
 890 417 890 417 908 509 c 5,14,15
 926 629 926 629 852 701 c 4,16,17
 776 773 776 773 644 803 c 4,18,19
 582 817 582 817 456 845 c 4,20,21
 294 883 294 883 212 969 c 4,22,23
 130 1057 130 1057 130 1195 c 4,24,25
 130 1271 130 1271 160 1337 c 4,26,27
 190 1401 190 1401 250 1455 c 4,28,29
 308 1507 308 1507 378 1537 c 4,30,31
 450 1567 450 1567 532 1571 c 5,32,33
 532 1631 532 1631 532 1751 c 5,34,35
 564 1751 564 1751 632 1751 c 5,36,37
 632 1691 632 1691 632 1569 c 5,38,39
 714 1559 714 1559 780 1527 c 260,40,41
 846 1495 846 1495 898 1443 c 4,42,43
 950 1389 950 1389 976 1323 c 4,44,45
 1000 1257 1000 1257 1000 1177 c 5,46,47
 956 1177 956 1177 868 1177 c 5,48,49
 868 1295 868 1295 782 1367 c 4,50,51
 698 1441 698 1441 566 1441 c 4,52,53
 506 1441 506 1441 454 1423 c 4,54,55
 400 1405 400 1405 354 1369 c 4,56,57
 308 1335 308 1335 286 1291 c 260,58,59
 264 1247 264 1247 264 1195 c 4,60,61
 264 1109 264 1109 318 1055 c 4,62,63
 374 1001 374 1001 484 975 c 4,64,65
 548 961 548 961 674 933 c 4,66,67
 766 911 766 911 838 873 c 4,68,69
 912 835 912 835 962 779 c 5,70,71
 1016 725 1016 725 1034 651 c 4,72,73
 1044 609 1044 609 1044 561 c 4,74,75
 1044 525 1044 525 1040 485 c 5,76,77
 1014 359 1014 359 908 265 c 4,78,79
 802 169 802 169 632 153 c 5,80,81
 632 93 632 93 632 -25 c 5,82,83
 606 -25 606 -25 586 -25 c 4,84,85
 564 -25 564 -25 532 -25 c 5,86,87
 532 33 532 33 532 151 c 5,88,89
 440 157 440 157 364 191 c 4,90,91
 290 225 290 225 234 287 c 4,92,93
 176 349 176 349 146 419 c 4,94,95
 118 491 118 491 118 567 c 5,0,1
EndSplineSet
Validated: 33
EndChar

StartChar: percent
Encoding: 37 37 5
Width: 1148
GlyphClass: 2
Flags: W
LayerCount: 2
Fore
SplineSet
18 1245 m 260,0,1
 18 1301 18 1301 36 1349 c 4,2,3
 56 1397 56 1397 94 1437 c 4,4,5
 134 1475 134 1475 182 1495 c 260,6,7
 230 1515 230 1515 286 1515 c 260,8,9
 342 1515 342 1515 390 1495 c 260,10,11
 438 1475 438 1475 476 1435 c 4,12,13
 516 1395 516 1395 536 1349 c 4,14,15
 556 1301 556 1301 556 1245 c 260,16,17
 556 1189 556 1189 536 1141 c 260,18,19
 516 1093 516 1093 476 1053 c 4,20,21
 438 1015 438 1015 390 997 c 4,22,23
 342 977 342 977 286 977 c 260,24,25
 230 977 230 977 182 997 c 4,26,27
 134 1015 134 1015 94 1053 c 4,28,29
 56 1093 56 1093 36 1141 c 4,30,31
 18 1189 18 1189 18 1245 c 260,0,1
132 1245 m 4,32,33
 132 1181 132 1181 176 1137 c 4,34,35
 220 1091 220 1091 286 1091 c 4,36,37
 350 1091 350 1091 396 1137 c 4,38,39
 440 1181 440 1181 440 1245 c 4,40,41
 440 1307 440 1307 396 1353 c 4,42,43
 350 1401 350 1401 286 1401 c 4,44,45
 220 1401 220 1401 176 1355 c 4,46,47
 132 1311 132 1311 132 1245 c 4,32,33
188 159 m 5,48,49
 408 609 408 609 850 1509 c 5,50,51
 884 1509 884 1509 952 1509 c 5,52,53
 730 1059 730 1059 288 159 c 5,54,55
 254 159 254 159 188 159 c 5,48,49
590 407 m 260,56,57
 590 463 590 463 610 511 c 4,58,59
 628 559 628 559 666 599 c 4,60,61
 706 637 706 637 754 657 c 260,62,63
 802 677 802 677 858 677 c 260,64,65
 914 677 914 677 962 657 c 260,66,67
 1010 637 1010 637 1050 597 c 4,68,69
 1088 557 1088 557 1108 509 c 4,70,71
 1128 463 1128 463 1128 407 c 260,72,73
 1128 351 1128 351 1108 303 c 260,74,75
 1088 255 1088 255 1050 215 c 4,76,77
 1010 177 1010 177 962 159 c 4,78,79
 914 139 914 139 858 139 c 260,80,81
 802 139 802 139 754 159 c 4,82,83
 706 177 706 177 666 215 c 4,84,85
 628 255 628 255 610 303 c 4,86,87
 590 351 590 351 590 407 c 260,56,57
704 407 m 4,88,89
 704 341 704 341 748 297 c 260,90,91
 792 253 792 253 858 253 c 4,92,93
 922 253 922 253 968 297 c 4,94,95
 1012 341 1012 341 1012 407 c 4,96,97
 1012 469 1012 469 968 515 c 4,98,99
 922 561 922 561 858 561 c 4,100,101
 792 561 792 561 748 517 c 4,102,103
 704 471 704 471 704 407 c 4,88,89
EndSplineSet
Validated: 1
EndChar

StartChar: plus
Encoding: 43 43 6
Width: 1148
GlyphClass: 2
Flags: W
LayerCount: 2
Fore
SplineSet
160 633 m 5,0,1
 160 675 160 675 160 759 c 5,2,3
 274 759 274 759 506 759 c 5,4,5
 506 841 506 841 506 923 c 4,6,7
 506 1007 506 1007 506 1089 c 4,8,9
 506 1093 506 1093 506 1097 c 260,10,11
 506 1101 506 1101 506 1105 c 5,12,13
 548 1105 548 1105 632 1105 c 5,14,15
 632 991 632 991 632 759 c 5,16,17
 748 759 748 759 982 759 c 5,18,19
 982 717 982 717 982 633 c 5,20,21
 866 633 866 633 632 633 c 5,22,23
 632 515 632 515 632 283 c 5,24,25
 590 283 590 283 506 283 c 5,26,27
 506 399 506 399 506 633 c 5,28,29
 390 633 390 633 160 633 c 5,0,1
EndSplineSet
Validated: 1
EndChar

StartChar: comma
Encoding: 44 44 7
Width: 1148
GlyphClass: 2
Flags: W
LayerCount: 2
Fore
SplineSet
380 43 m 1,0,1
 440 125 440 125 468 217 c 256,2,3
 496 309 496 309 494 411 c 1,4,5
 548 411 548 411 656 411 c 1,6,7
 646 267 646 267 596 163 c 0,8,9
 548 57 548 57 488 7 c 1,10,11
 452 19 452 19 380 43 c 1,0,1
EndSplineSet
Validated: 33
EndChar

StartChar: hyphen
Encoding: 45 45 8
Width: 1148
GlyphClass: 2
Flags: W
LayerCount: 2
Fore
SplineSet
160 633 m 5,0,1
 160 675 160 675 160 759 c 5,2,3
 434 759 434 759 982 759 c 5,4,5
 982 727 982 727 982 701 c 260,6,7
 982 675 982 675 982 633 c 5,8,9
 708 633 708 633 160 633 c 5,0,1
EndSplineSet
Validated: 1
EndChar

StartChar: period
Encoding: 46 46 9
Width: 1148
GlyphClass: 2
Flags: W
LayerCount: 2
Fore
SplineSet
466 252 m 4,0,1
 466 296 466 296 498 326 c 260,2,3
 530 356 530 356 576 356 c 4,4,5
 620 356 620 356 652 326 c 4,6,7
 686 296 686 296 686 252 c 4,8,9
 686 206 686 206 652 176 c 4,10,11
 620 146 620 146 576 146 c 4,12,13
 530 146 530 146 498 176 c 260,14,15
 466 206 466 206 466 252 c 4,0,1
EndSplineSet
Validated: 1
EndChar

StartChar: zero
Encoding: 48 48 10
Width: 1148
GlyphClass: 2
Flags: W
LayerCount: 2
Fore
SplineSet
40 837 m 4,0,1
 40 1085 40 1085 110 1237 c 4,2,3
 180 1387 180 1387 282 1459 c 4,4,5
 338 1497 338 1497 400 1513 c 4,6,7
 462 1531 462 1531 524 1531 c 4,8,9
 638 1531 638 1531 748 1469 c 4,10,11
 858 1405 858 1405 928 1259 c 4,12,13
 964 1181 964 1181 986 1077 c 4,14,15
 1006 971 1006 971 1006 837 c 4,16,17
 1006 701 1006 701 986 597 c 4,18,19
 964 491 964 491 928 413 c 4,20,21
 858 267 858 267 748 205 c 4,22,23
 638 141 638 141 524 141 c 4,24,25
 408 141 408 141 300 205 c 4,26,27
 190 267 190 267 120 413 c 4,28,29
 84 491 84 491 62 597 c 4,30,31
 40 701 40 701 40 837 c 4,0,1
188 837 m 260,32,33
 188 755 188 755 208 623 c 260,34,35
 228 491 228 491 298 393 c 4,36,37
 334 341 334 341 390 307 c 4,38,39
 446 275 446 275 524 275 c 260,40,41
 602 275 602 275 658 307 c 4,42,43
 714 341 714 341 750 393 c 4,44,45
 820 491 820 491 840 623 c 260,46,47
 860 755 860 755 860 837 c 260,48,49
 860 919 860 919 840 1051 c 260,50,51
 820 1183 820 1183 750 1281 c 4,52,53
 714 1333 714 1333 658 1365 c 4,54,55
 602 1399 602 1399 524 1399 c 260,56,57
 446 1399 446 1399 390 1365 c 4,58,59
 334 1333 334 1333 298 1281 c 4,60,61
 228 1183 228 1183 208 1051 c 260,62,63
 188 919 188 919 188 837 c 260,32,33
EndSplineSet
Validated: 1
EndChar

StartChar: one
Encoding: 49 49 11
Width: 1148
GlyphClass: 2
Flags: W
LayerCount: 2
Fore
SplineSet
184 159 m 5,0,1
 184 203 184 203 184 293 c 5,2,3
 280 293 280 293 474 293 c 5,4,5
 474 641 474 641 474 1337 c 5,6,7
 398 1309 398 1309 244 1257 c 5,8,9
 244 1297 244 1297 244 1379 c 5,10,11
 366 1423 366 1423 608 1511 c 5,12,13
 608 1105 608 1105 608 293 c 5,14,15
 702 293 702 293 890 293 c 5,16,17
 890 249 890 249 890 159 c 5,18,19
 654 159 654 159 184 159 c 5,0,1
EndSplineSet
Validated: 1
EndChar

StartChar: two
Encoding: 50 50 12
Width: 1148
GlyphClass: 2
Flags: W
LayerCount: 2
Fore
SplineSet
108 1193 m 5,0,1
 120 1265 120 1265 154 1323 c 4,2,3
 190 1381 190 1381 244 1423 c 4,4,5
 300 1465 300 1465 368 1487 c 260,6,7
 436 1509 436 1509 512 1509 c 4,8,9
 598 1509 598 1509 670 1481 c 4,10,11
 744 1455 744 1455 802 1401 c 4,12,13
 862 1347 862 1347 892 1279 c 4,14,15
 922 1209 922 1209 922 1127 c 4,16,17
 922 1039 922 1039 886 953 c 4,18,19
 850 869 850 869 776 785 c 4,20,21
 636 621 636 621 358 291 c 5,22,23
 546 291 546 291 924 291 c 5,24,25
 924 247 924 247 924 157 c 5,26,27
 656 157 656 157 122 157 c 5,28,29
 122 173 122 173 122 203 c 5,30,31
 256 365 256 365 388 525 c 4,32,33
 520 687 520 687 652 847 c 4,34,35
 660 855 660 855 666 863 c 4,36,37
 674 871 674 871 680 881 c 4,38,39
 734 945 734 945 762 1007 c 4,40,41
 788 1069 788 1069 788 1127 c 4,42,43
 788 1241 788 1241 710 1309 c 4,44,45
 630 1377 630 1377 512 1377 c 4,46,47
 404 1377 404 1377 324 1317 c 4,48,49
 244 1259 244 1259 230 1161 c 5,50,51
 190 1173 190 1173 108 1193 c 5,0,1
EndSplineSet
Validated: 1
EndChar

StartChar: three
Encoding: 51 51 13
Width: 1148
GlyphClass: 2
Flags: W
LayerCount: 2
Fore
SplineSet
112 389 m 5,0,1
 152 407 152 407 232 443 c 5,2,3
 262 375 262 375 334 329 c 4,4,5
 408 283 408 283 500 275 c 5,6,7
 500 275 500 275 498 275 c 5,8,9
 562 271 562 271 618 287 c 260,10,11
 674 303 674 303 724 341 c 260,12,13
 774 379 774 379 800 425 c 4,14,15
 828 473 828 473 832 529 c 4,16,17
 834 585 834 585 812 635 c 4,18,19
 792 685 792 685 746 727 c 4,20,21
 702 769 702 769 648 789 c 4,22,23
 594 811 594 811 534 811 c 4,24,25
 490 811 490 811 404 811 c 5,26,27
 404 853 404 853 404 937 c 5,28,29
 448 937 448 937 534 937 c 4,30,31
 582 935 582 935 626 951 c 4,32,33
 670 965 670 965 704 997 c 260,34,35
 738 1029 738 1029 758 1067 c 4,36,37
 776 1107 776 1107 778 1153 c 4,38,39
 782 1249 782 1249 722 1309 c 4,40,41
 664 1371 664 1371 548 1379 c 4,42,43
 464 1383 464 1383 392 1349 c 4,44,45
 322 1317 322 1317 286 1259 c 5,46,47
 250 1281 250 1281 180 1325 c 5,48,49
 234 1417 234 1417 336 1469 c 4,50,51
 424 1513 424 1513 526 1513 c 4,52,53
 540 1513 540 1513 556 1513 c 4,54,55
 648 1505 648 1505 716 1475 c 4,56,57
 786 1445 786 1445 832 1391 c 4,58,59
 880 1337 880 1337 900 1271 c 4,60,61
 920 1207 920 1207 912 1133 c 4,62,63
 906 1053 906 1053 856 983 c 4,64,65
 804 913 804 913 724 879 c 5,66,67
 780 865 780 865 826 831 c 4,68,69
 872 795 872 795 906 741 c 4,70,71
 942 685 942 685 956 627 c 4,72,73
 968 581 968 581 968 537 c 4,74,75
 968 523 968 523 966 509 c 4,76,77
 960 427 960 427 922 359 c 260,78,79
 884 291 884 291 812 237 c 4,80,81
 742 183 742 183 662 159 c 4,82,83
 596 141 596 141 526 141 c 4,84,85
 508 141 508 141 490 143 c 4,86,87
 362 153 362 153 260 219 c 4,88,89
 158 287 158 287 112 389 c 5,0,1
EndSplineSet
Validated: 33
EndChar

StartChar: four
Encoding: 52 52 14
Width: 1148
GlyphClass: 2
Flags: W
LayerCount: 2
Fore
SplineSet
24 445 m 5,0,1
 264 797 264 797 748 1499 c 5,2,3
 780 1499 780 1499 846 1499 c 5,4,5
 846 1189 846 1189 846 569 c 5,6,7
 900 569 900 569 1008 569 c 5,8,9
 1008 527 1008 527 1008 445 c 5,10,11
 954 445 954 445 846 445 c 5,12,13
 846 377 846 377 846 309 c 260,14,15
 846 241 846 241 846 173 c 4,16,17
 846 169 846 169 846 167 c 4,18,19
 846 163 846 163 846 159 c 5,20,21
 802 159 802 159 714 159 c 5,22,23
 714 255 714 255 714 445 c 5,24,25
 484 445 484 445 24 445 c 5,0,1
268 569 m 5,26,27
 374 569 374 569 480 569 c 4,28,29
 584 569 584 569 692 569 c 4,30,31
 696 569 696 569 702 569 c 260,32,33
 708 569 708 569 714 569 c 5,34,35
 714 789 714 789 714 1233 c 5,36,37
 564 1011 564 1011 268 569 c 5,26,27
EndSplineSet
Validated: 1
EndChar

StartChar: five
Encoding: 53 53 15
Width: 1148
GlyphClass: 2
Flags: W
LayerCount: 2
Fore
SplineSet
46 421 m 5,0,1
 84 447 84 447 160 503 c 5,2,3
 180 455 180 455 214 413 c 4,4,5
 246 373 246 373 294 341 c 260,6,7
 342 309 342 309 392 293 c 260,8,9
 442 277 442 277 494 277 c 4,10,11
 652 277 652 277 742 363 c 4,12,13
 832 447 832 447 832 579 c 4,14,15
 832 645 832 645 808 699 c 4,16,17
 786 751 786 751 738 789 c 4,18,19
 692 827 692 827 640 847 c 4,20,21
 588 865 588 865 528 865 c 4,22,23
 480 865 480 865 436 859 c 4,24,25
 394 853 394 853 356 843 c 4,26,27
 320 833 320 833 270 811 c 4,28,29
 222 791 222 791 160 761 c 5,30,31
 142 785 142 785 108 831 c 5,32,33
 146 1053 146 1053 224 1499 c 5,34,35
 444 1499 444 1499 882 1499 c 5,36,37
 882 1453 882 1453 882 1363 c 5,38,39
 700 1363 700 1363 340 1363 c 5,40,41
 312 1215 312 1215 258 919 c 5,42,43
 342 961 342 961 410 981 c 4,44,45
 476 1003 476 1003 528 1003 c 4,46,47
 622 1003 622 1003 700 973 c 4,48,49
 778 945 778 945 842 887 c 4,50,51
 906 831 906 831 938 755 c 4,52,53
 970 677 970 677 970 579 c 4,54,55
 970 479 970 479 938 397 c 4,56,57
 906 317 906 317 842 257 c 4,58,59
 776 199 776 199 690 169 c 260,60,61
 604 139 604 139 494 139 c 4,62,63
 426 139 426 139 358 157 c 4,64,65
 292 177 292 177 230 217 c 4,66,67
 168 255 168 255 122 307 c 260,68,69
 76 359 76 359 46 421 c 5,0,1
EndSplineSet
Validated: 1
EndChar

StartChar: six
Encoding: 54 54 16
Width: 1148
GlyphClass: 2
Flags: W
LayerCount: 2
Fore
SplineSet
98 757 m 4,0,1
 98 819 98 819 100 875 c 4,2,3
 106 1005 106 1005 124 1115 c 4,4,5
 140 1207 140 1207 178 1281 c 260,6,7
 216 1355 216 1355 276 1411 c 4,8,9
 338 1467 338 1467 412 1493 c 4,10,11
 480 1517 480 1517 558 1517 c 4,12,13
 568 1517 568 1517 576 1517 c 4,14,15
 698 1511 698 1511 784 1463 c 4,16,17
 872 1413 872 1413 924 1291 c 5,18,19
 886 1275 886 1275 808 1241 c 5,20,21
 776 1307 776 1307 716 1343 c 260,22,23
 656 1379 656 1379 570 1383 c 4,24,25
 480 1387 480 1387 414 1349 c 260,26,27
 348 1311 348 1311 308 1233 c 260,28,29
 268 1155 268 1155 250 1057 c 260,30,31
 232 959 232 959 236 839 c 5,32,33
 268 925 268 925 362 967 c 260,34,35
 456 1009 456 1009 554 1005 c 4,36,37
 644 1001 644 1001 718 965 c 4,38,39
 792 931 792 931 850 863 c 5,40,41
 910 799 910 799 936 721 c 4,42,43
 960 657 960 657 960 581 c 4,44,45
 960 569 960 569 958 555 c 4,46,47
 954 465 954 465 920 389 c 4,48,49
 888 313 888 313 824 253 c 4,50,51
 762 193 762 193 686 165 c 4,52,53
 620 139 620 139 544 139 c 4,54,55
 532 139 532 139 520 141 c 4,56,57
 344 149 344 149 232 267 c 4,58,59
 120 387 120 387 102 591 c 4,60,61
 98 679 98 679 98 757 c 4,0,1
238 585 m 4,62,63
 236 521 236 521 256 467 c 4,64,65
 278 413 278 413 318 369 c 4,66,67
 360 325 360 325 412 301 c 260,68,69
 464 277 464 277 526 275 c 4,70,71
 588 275 588 275 640 293 c 4,72,73
 690 311 690 311 734 353 c 4,74,75
 778 393 778 393 800 445 c 4,76,77
 822 499 822 499 826 561 c 4,78,79
 828 625 828 625 810 679 c 4,80,81
 790 733 790 733 752 777 c 4,82,83
 712 821 712 821 662 845 c 260,84,85
 612 869 612 869 550 871 c 4,86,87
 488 871 488 871 434 851 c 4,88,89
 380 833 380 833 332 791 c 4,90,91
 286 751 286 751 262 699 c 4,92,93
 240 647 240 647 238 585 c 4,62,63
EndSplineSet
Validated: 33
EndChar

StartChar: seven
Encoding: 55 55 17
Width: 1148
GlyphClass: 2
Flags: W
LayerCount: 2
Fore
SplineSet
112 159 m 5,0,1
 336 561 336 561 780 1365 c 5,2,3
 560 1365 560 1365 118 1365 c 5,4,5
 118 1411 118 1411 118 1499 c 5,6,7
 416 1499 416 1499 1008 1499 c 5,8,9
 832 1181 832 1181 658 863 c 4,10,11
 482 543 482 543 306 225 c 4,12,13
 298 209 298 209 288 193 c 4,14,15
 280 175 280 175 270 159 c 5,16,17
 218 159 218 159 112 159 c 5,0,1
EndSplineSet
Validated: 1
EndChar

StartChar: eight
Encoding: 56 56 18
Width: 1148
GlyphClass: 2
Flags: W
LayerCount: 2
Fore
SplineSet
74 567 m 4,0,1
 74 685 74 685 134 783 c 4,2,3
 196 883 196 883 300 939 c 5,4,5
 240 985 240 985 212 1049 c 4,6,7
 182 1111 182 1111 182 1189 c 4,8,9
 182 1257 182 1257 208 1315 c 4,10,11
 232 1373 232 1373 282 1421 c 260,12,13
 332 1469 332 1469 392 1493 c 260,14,15
 452 1517 452 1517 526 1517 c 260,16,17
 600 1517 600 1517 662 1493 c 260,18,19
 724 1469 724 1469 774 1421 c 260,20,21
 824 1373 824 1373 848 1315 c 4,22,23
 874 1257 874 1257 874 1189 c 4,24,25
 874 1111 874 1111 844 1049 c 4,26,27
 812 987 812 987 752 939 c 5,28,29
 856 883 856 883 916 783 c 4,30,31
 978 685 978 685 978 567 c 4,32,33
 978 479 978 479 946 401 c 4,34,35
 912 325 912 325 848 263 c 4,36,37
 782 201 782 201 702 171 c 4,38,39
 620 141 620 141 526 141 c 4,40,41
 430 141 430 141 348 171 c 4,42,43
 268 201 268 201 202 263 c 4,44,45
 138 325 138 325 106 401 c 4,46,47
 74 479 74 479 74 567 c 4,0,1
206 567 m 4,48,49
 206 505 206 505 230 453 c 4,50,51
 252 401 252 401 298 359 c 4,52,53
 344 315 344 315 400 295 c 4,54,55
 458 273 458 273 526 273 c 260,56,57
 594 273 594 273 650 295 c 4,58,59
 706 315 706 315 754 359 c 4,60,61
 800 401 800 401 822 453 c 4,62,63
 846 505 846 505 846 567 c 260,64,65
 846 629 846 629 822 683 c 4,66,67
 800 735 800 735 754 779 c 4,68,69
 706 823 706 823 650 845 c 260,70,71
 594 867 594 867 526 867 c 4,72,73
 520 867 520 867 512 867 c 4,74,75
 446 867 446 867 392 843 c 260,76,77
 338 819 338 819 294 775 c 260,78,79
 250 731 250 731 228 679 c 260,80,81
 206 627 206 627 206 567 c 4,48,49
316 1189 m 4,82,83
 316 1109 316 1109 374 1049 c 4,84,85
 430 991 430 991 516 989 c 4,86,87
 520 989 520 989 524 989 c 260,88,89
 528 989 528 989 534 989 c 4,90,91
 622 991 622 991 682 1049 c 4,92,93
 740 1109 740 1109 740 1189 c 4,94,95
 740 1271 740 1271 680 1327 c 4,96,97
 618 1383 618 1383 526 1383 c 4,98,99
 436 1383 436 1383 376 1327 c 260,100,101
 316 1271 316 1271 316 1189 c 4,82,83
EndSplineSet
Validated: 1
EndChar

StartChar: nine
Encoding: 57 57 19
Width: 1148
GlyphClass: 2
Flags: W
LayerCount: 2
Fore
SplineSet
98 1073 m 4,0,1
 98 1087 98 1087 98 1099 c 4,2,3
 102 1191 102 1191 136 1265 c 4,4,5
 170 1341 170 1341 232 1401 c 4,6,7
 294 1463 294 1463 372 1491 c 4,8,9
 438 1515 438 1515 514 1515 c 4,10,11
 526 1515 526 1515 538 1515 c 4,12,13
 712 1507 712 1507 826 1387 c 4,14,15
 938 1267 938 1267 954 1063 c 4,16,17
 958 977 958 977 958 897 c 4,18,19
 958 837 958 837 956 781 c 4,20,21
 950 649 950 649 932 539 c 4,22,23
 918 449 918 449 880 375 c 260,24,25
 842 301 842 301 780 245 c 260,26,27
 718 189 718 189 644 163 c 4,28,29
 578 139 578 139 498 139 c 4,30,31
 490 139 490 139 482 139 c 4,32,33
 346 145 346 145 256 201 c 4,34,35
 168 257 168 257 120 365 c 5,36,37
 160 381 160 381 238 415 c 5,38,39
 268 349 268 349 332 313 c 4,40,41
 394 277 394 277 488 271 c 4,42,43
 578 269 578 269 642 305 c 4,44,45
 708 343 708 343 748 421 c 260,46,47
 788 499 788 499 806 597 c 4,48,49
 824 697 824 697 822 815 c 5,50,51
 790 731 790 731 696 689 c 4,52,53
 602 645 602 645 504 651 c 4,54,55
 414 655 414 655 340 689 c 4,56,57
 266 725 266 725 206 789 c 4,58,59
 148 855 148 855 120 933 c 4,60,61
 98 999 98 999 98 1073 c 4,0,1
232 1093 m 4,62,63
 230 1031 230 1031 248 975 c 4,64,65
 266 921 266 921 306 877 c 4,66,67
 344 835 344 835 396 811 c 4,68,69
 446 787 446 787 508 785 c 260,70,71
 570 783 570 783 624 803 c 4,72,73
 678 821 678 821 722 861 c 4,74,75
 770 903 770 903 794 955 c 260,76,77
 818 1007 818 1007 820 1069 c 4,78,79
 822 1135 822 1135 800 1189 c 4,80,81
 780 1243 780 1243 736 1287 c 4,82,83
 696 1331 696 1331 644 1355 c 4,84,85
 594 1379 594 1379 532 1379 c 4,86,87
 470 1381 470 1381 418 1361 c 260,88,89
 366 1341 366 1341 322 1301 c 4,90,91
 280 1261 280 1261 256 1209 c 4,92,93
 234 1157 234 1157 232 1093 c 4,62,63
EndSplineSet
Validated: 33
EndChar

StartChar: B
Encoding: 66 66 20
Width: 1148
GlyphClass: 2
Flags: W
LayerCount: 2
Fore
SplineSet
114 159 m 5,0,1
 114 629 114 629 114 1571 c 5,2,3
 286 1571 286 1571 628 1571 c 4,4,5
 798 1571 798 1571 896 1475 c 4,6,7
 994 1381 994 1381 994 1219 c 4,8,9
 994 1097 994 1097 952 1019 c 4,10,11
 908 943 908 943 822 911 c 5,12,13
 874 901 874 901 918 869 c 4,14,15
 964 837 964 837 998 783 c 4,16,17
 1034 729 1034 729 1052 671 c 4,18,19
 1070 615 1070 615 1070 555 c 4,20,21
 1070 471 1070 471 1044 401 c 260,22,23
 1018 331 1018 331 964 273 c 4,24,25
 910 217 910 217 838 187 c 4,26,27
 766 159 766 159 674 159 c 4,28,29
 488 159 488 159 114 159 c 5,0,1
250 295 m 5,30,31
 392 295 392 295 672 295 c 4,32,33
 732 295 732 295 778 313 c 4,34,35
 826 331 826 331 862 369 c 4,36,37
 898 409 898 409 916 455 c 260,38,39
 934 501 934 501 934 555 c 4,40,41
 934 607 934 607 916 655 c 4,42,43
 896 705 896 705 858 751 c 4,44,45
 818 797 818 797 770 819 c 4,46,47
 722 843 722 843 664 843 c 4,48,49
 526 843 526 843 250 843 c 5,50,51
 250 713 250 713 250 581 c 4,52,53
 250 451 250 451 250 321 c 4,54,55
 250 315 250 315 250 307 c 4,56,57
 250 301 250 301 250 295 c 5,30,31
250 969 m 5,58,59
 344 969 344 969 438 969 c 4,60,61
 530 969 530 969 624 969 c 4,62,63
 628 969 628 969 634 969 c 4,64,65
 638 969 638 969 644 969 c 4,66,67
 748 969 748 969 804 1043 c 4,68,69
 860 1115 860 1115 860 1219 c 4,70,71
 860 1325 860 1325 792 1381 c 4,72,73
 726 1437 726 1437 614 1437 c 4,74,75
 492 1437 492 1437 250 1437 c 5,76,77
 250 1281 250 1281 250 969 c 5,58,59
EndSplineSet
Validated: 1
EndChar

StartChar: m
Encoding: 109 109 21
Width: 1148
GlyphClass: 2
Flags: W
LayerCount: 2
Fore
SplineSet
6 159 m 5,0,1
 8 479 8 479 8 1119 c 5,2,3
 68 1119 68 1119 186 1119 c 5,4,5
 188 1071 188 1071 188 973 c 5,6,7
 202 1015 202 1015 216 1047 c 4,8,9
 230 1077 230 1077 258 1099 c 260,10,11
 286 1121 286 1121 312 1131 c 4,12,13
 336 1141 336 1141 370 1141 c 4,14,15
 462 1141 462 1141 524 1095 c 260,16,17
 586 1049 586 1049 620 957 c 5,18,19
 660 1049 660 1049 714 1095 c 4,20,21
 770 1141 770 1141 866 1141 c 4,22,23
 938 1141 938 1141 988 1113 c 4,24,25
 1036 1085 1036 1085 1078 1029 c 4,26,27
 1118 973 1118 973 1134 895 c 4,28,29
 1146 821 1146 821 1146 727 c 4,30,31
 1146 721 1146 721 1146 715 c 4,32,33
 1146 529 1146 529 1146 159 c 5,34,35
 1088 159 1088 159 970 159 c 5,36,37
 970 343 970 343 970 713 c 4,38,39
 970 771 970 771 962 817 c 4,40,41
 954 861 954 861 930 893 c 260,42,43
 906 925 906 925 886 941 c 260,44,45
 866 957 866 957 826 957 c 4,46,47
 788 957 788 957 766 941 c 4,48,49
 746 923 746 923 720 891 c 4,50,51
 696 857 696 857 684 811 c 260,52,53
 672 765 672 765 672 707 c 4,54,55
 672 523 672 523 672 159 c 5,56,57
 612 159 612 159 494 159 c 5,58,59
 494 345 494 345 494 719 c 4,60,61
 494 777 494 777 482 821 c 4,62,63
 470 867 470 867 446 897 c 4,64,65
 424 927 424 927 398 943 c 4,66,67
 372 957 372 957 332 957 c 4,68,69
 294 957 294 957 270 941 c 4,70,71
 248 923 248 923 224 889 c 260,72,73
 200 855 200 855 192 809 c 4,74,75
 186 763 186 763 186 705 c 4,76,77
 186 523 186 523 186 159 c 5,78,79
 126 159 126 159 6 159 c 5,0,1
EndSplineSet
Validated: 1
EndChar

StartChar: sterling
Encoding: 163 163 22
Width: 1148
GlyphClass: 2
Flags: W
LayerCount: 2
Fore
SplineSet
28 161 m 5,0,1
 28 205 28 205 28 295 c 5,2,3
 94 295 94 295 228 295 c 5,4,5
 228 441 228 441 228 729 c 5,6,7
 172 729 172 729 62 729 c 5,8,9
 62 769 62 769 62 847 c 5,10,11
 118 847 118 847 228 847 c 5,12,13
 228 929 228 929 228 1013 c 260,14,15
 228 1097 228 1097 228 1181 c 4,16,17
 228 1185 228 1185 228 1189 c 4,18,19
 228 1195 228 1195 228 1199 c 4,20,21
 228 1287 228 1287 258 1357 c 4,22,23
 290 1429 290 1429 350 1483 c 4,24,25
 412 1537 412 1537 484 1565 c 4,26,27
 558 1593 558 1593 642 1593 c 260,28,29
 726 1593 726 1593 796 1565 c 260,30,31
 866 1537 866 1537 924 1483 c 260,32,33
 982 1429 982 1429 1010 1357 c 4,34,35
 1040 1287 1040 1287 1040 1199 c 5,36,37
 994 1199 994 1199 906 1199 c 5,38,39
 906 1315 906 1315 828 1387 c 4,40,41
 752 1459 752 1459 642 1459 c 4,42,43
 586 1459 586 1459 536 1439 c 4,44,45
 488 1421 488 1421 446 1385 c 260,46,47
 404 1349 404 1349 384 1303 c 4,48,49
 362 1255 362 1255 362 1199 c 4,50,51
 362 1081 362 1081 362 847 c 5,52,53
 472 847 472 847 694 847 c 5,54,55
 694 807 694 807 694 729 c 5,56,57
 582 729 582 729 362 729 c 5,58,59
 362 585 362 585 362 295 c 5,60,61
 556 295 556 295 944 295 c 4,62,63
 962 295 962 295 974 309 c 260,64,65
 986 323 986 323 986 347 c 4,66,67
 986 387 986 387 986 467 c 5,68,69
 1032 467 1032 467 1122 467 c 5,70,71
 1122 427 1122 427 1122 347 c 260,72,73
 1122 267 1122 267 1070 213 c 4,74,75
 1018 161 1018 161 944 161 c 4,76,77
 638 161 638 161 28 161 c 5,0,1
EndSplineSet
Validated: 1
EndChar

StartChar: Euro
Encoding: 8364 8364 23
Width: 1148
GlyphClass: 2
Flags: W
LayerCount: 2
Fore
SplineSet
6 492 m 1,0,1
 6 524 6 524 6 588 c 1,2,3
 230 588 230 588 454 588 c 256,4,5
 678 588 678 588 900 588 c 0,6,7
 912 588 912 588 924 588 c 256,8,9
 936 588 936 588 948 588 c 1,10,11
 948 556 948 556 948 492 c 1,12,13
 752 492 752 492 358 492 c 1,14,15
 380 400 380 400 426 326 c 0,16,17
 474 252 474 252 542 194 c 0,18,19
 614 136 614 136 698 108 c 0,20,21
 780 80 780 80 878 80 c 0,22,23
 996 80 996 80 1098 122 c 0,24,25
 1198 164 1198 164 1280 248 c 1,26,27
 1312 216 1312 216 1374 154 c 1,28,29
 1272 50 1272 50 1148 -2 c 256,30,31
 1024 -54 1024 -54 878 -54 c 0,32,33
 754 -54 754 -54 646 -16 c 0,34,35
 540 22 540 22 450 100 c 0,36,37
 362 176 362 176 304 274 c 256,38,39
 246 372 246 372 220 492 c 1,40,41
 150 492 150 492 6 492 c 1,0,1
6 720 m 1,42,43
 6 752 6 752 6 814 c 1,44,45
 78 814 78 814 218 814 c 1,46,47
 244 938 244 938 302 1038 c 0,48,49
 358 1136 358 1136 448 1214 c 256,50,51
 538 1292 538 1292 644 1332 c 0,52,53
 752 1372 752 1372 878 1372 c 0,54,55
 1024 1372 1024 1372 1146 1320 c 0,56,57
 1270 1268 1270 1268 1372 1164 c 1,58,59
 1340 1132 1340 1132 1278 1070 c 1,60,61
 1196 1154 1196 1154 1094 1196 c 0,62,63
 994 1238 994 1238 878 1238 c 0,64,65
 780 1238 780 1238 696 1208 c 256,66,67
 612 1178 612 1178 540 1120 c 0,68,69
 470 1060 470 1060 424 984 c 256,70,71
 378 908 378 908 356 814 c 1,72,73
 552 814 552 814 948 814 c 1,74,75
 948 784 948 784 948 720 c 1,76,77
 724 720 724 720 500 720 c 0,78,79
 278 720 278 720 54 720 c 0,80,81
 42 720 42 720 30 720 c 256,82,83
 18 720 18 720 6 720 c 1,42,43
EndSplineSet
Validated: 1
EndChar

StartChar: uni25FC
Encoding: 9724 9724 24
Width: 1000
GlyphClass: 2
Flags: W
LayerCount: 2
Fore
SplineSet
0 0 m 1024,0,-1
EndSplineSet
Validated: 1
EndChar
